<?xml version="1.0" encoding="UTF-8" standalone="no"?>
<svg
   width="58"
   height="58"
   viewBox="0 0 58 58.000001"
   version="1.1"
   id="svg168"
   sodipodi:docname="logo.svg"
   inkscape:version="1.1.2 (0a00cf5339, 2022-02-04)"
   inkscape:export-filename="/home/manucornet/repos/replicache-developer-tools/icons/48.png"
   inkscape:export-xdpi="79.449997"
   inkscape:export-ydpi="79.449997"
   xmlns:inkscape="http://www.inkscape.org/namespaces/inkscape"
   xmlns:sodipodi="http://sodipodi.sourceforge.net/DTD/sodipodi-0.dtd"
   xmlns="http://www.w3.org/2000/svg"
   xmlns:svg="http://www.w3.org/2000/svg"
   xmlns:rdf="http://www.w3.org/1999/02/22-rdf-syntax-ns#"
   xmlns:cc="http://creativecommons.org/ns#"
   xmlns:dc="http://purl.org/dc/elements/1.1/">
  <sodipodi:namedview
     id="namedview170"
     pagecolor="#ffffff"
     bordercolor="#666666"
     borderopacity="1.0"
     inkscape:pageshadow="2"
     inkscape:pageopacity="0.0"
     inkscape:pagecheckerboard="0"
     showgrid="false"
     fit-margin-top="0"
     fit-margin-left="0"
     fit-margin-right="0"
     fit-margin-bottom="0"
     inkscape:zoom="7.4274956"
     inkscape:cx="10.434203"
     inkscape:cy="28.744547"
     inkscape:window-width="1920"
     inkscape:window-height="1080"
     inkscape:window-x="2256"
     inkscape:window-y="0"
     inkscape:window-maximized="0"
     inkscape:current-layer="svg168" />
  <title
     id="title114">Logos / Lockup v2</title>
  <defs
     id="defs130">
    <linearGradient
       x1="20.805433"
       y1="13.729247"
       x2="20.805433"
       y2="55.235188"
       id="linearGradient-1"
       gradientTransform="scale(1.3988832,0.71485597)"
       gradientUnits="userSpaceOnUse">
      <stop
         stop-color="#F9CA96"
         offset="0%"
         id="stop116" />
      <stop
         stop-color="#F5569F"
         offset="44.7917%"
         id="stop118" />
      <stop
         stop-color="#5F24B1"
         offset="100%"
         id="stop120" />
    </linearGradient>
    <linearGradient
       x1="20.805433"
       y1="-0.06626308"
       x2="20.805433"
       y2="41.439674"
       id="linearGradient-2"
       gradientTransform="scale(1.3988831,0.71485599)"
       gradientUnits="userSpaceOnUse">
      <stop
         stop-color="#F9CA96"
         offset="0%"
         id="stop123" />
      <stop
         stop-color="#F5569F"
         offset="44.7917%"
         id="stop125" />
      <stop
         stop-color="#5F24B1"
         offset="100%"
         id="stop127" />
    </linearGradient>
  </defs>
  <g
     id="neon-replicache-copy-2"
     style="fill:none;fill-rule:evenodd;stroke:none;stroke-width:1"
     transform="translate(0,8.2420293)">
    <path
       d="m 19.75078,34.014366 -0.0037,-0.0021 -0.0037,-0.002 L 0.71545734,23.849423 C 0.52689419,23.748777 0.52117435,23.480536 0.70526681,23.371892 L 18.784049,12.702901 c 3.84e-4,-2.19e-4 8.22e-4,-4.93e-4 0.0013,-7.12e-4 2.94583,-1.696285 6.788262,-2.574971 10.620395,-2.612556 3.833282,-0.03758 7.626241,0.7667 10.474275,2.404801 1.945843,1.12167 3.186293,2.476572 3.766934,3.887358 0.578231,1.404923 0.51254,2.888686 -0.195592,4.304567 -0.26457,0.528976 0.04997,1.249107 0.701667,1.288938 l 12.989583,0.793601 c 0.273391,0.01666 0.356121,0.379679 0.116698,0.512813 L 28.83476,39.094947 c -0.08415,0.04679 -0.186662,0.04602 -0.270049,-0.0021 l -7.031191,-4.054352 -3.84e-4,-2.19e-4 z"
       id="path150"
       fill="url(#linearGradient-1)"
       fill-rule="nonzero"
       style="fill:url(#linearGradient-1)" />
    <path
       d="M 29.403482,9.8630814 C 25.533535,9.9010367 21.783569,10.782672 18.905575,12.37414 L 18.671643,12.50619 0.59011924,23.176773 c -0.33635495,0.198503 -0.32589879,0.688618 0.0186559,0.872523 l 19.03023186,10.162142 1.782106,1.023787 7.030424,4.053911 c 0.15231,0.08786 0.339592,0.0893 0.493317,0.0038 l 28.42456,-15.813264 c 0.437363,-0.243202 0.286326,-0.90652 -0.213066,-0.936944 L 44.166804,21.749156 c -0.457097,-0.02794 -0.719893,-0.547495 -0.512852,-0.96145 0.736423,-1.472448 0.806486,-3.024576 0.202473,-4.492144 C 43.234907,14.785457 41.92002,13.408895 39.992939,12.298039 37.176998,10.678398 33.378898,9.8241034 29.403482,9.8630814 Z M 0.82041759,23.56701 18.886631,12.904832 c 2.84861,-1.63985 6.620615,-2.550391 10.521294,-2.588647 3.899275,-0.03823 7.618453,0.798311 10.358906,2.374534 1.845192,1.063651 3.090116,2.366969 3.670571,3.777302 0.553606,1.345095 0.489716,2.760503 -0.188714,4.116994 -0.346813,0.693411 0.09548,1.567833 0.890479,1.616422 l 12.989588,0.793602 c 0.0475,0.0029 0.06179,0.06565 0.02041,0.08866 l -28.42455,15.813262 c -0.01456,0.0081 -0.0323,0.008 -0.04669,-3.45e-4 L 21.645543,34.841584 19.851668,33.811247 0.82217806,23.649569 c -0.0326073,-0.0174 -0.0335965,-0.06377 -0.00176,-0.08256 z"
       id="path152"
       fill="#3f2bb4"
       fill-rule="nonzero" />
    <path
       d="m 56.906984,23.174985 c 0.365434,-0.208194 0.819077,0.05556 0.819077,0.475996 v 1.683903 c 0,0.19351 -0.101905,0.372612 -0.26846,0.471284 L 28.900834,42.735706 c -0.172527,0.102289 -0.38724,0.102124 -0.559602,-5.48e-4 L 0.54155541,26.185574 C 0.37561414,26.086737 0.27393896,25.907909 0.27393896,25.714782 v -1.683026 c 0,-0.42077 0.45462362,-0.684518 0.81987194,-0.475613 L 28.34934,39.143763 c 0.168253,0.09621 0.374913,0.09637 0.543331,3.84e-4 z"
       id="path154"
       fill="#ffffff" />
    <path
       d="m 28.34934,39.143763 -0.135983,0.237779 z m 0.543331,3.84e-4 -0.13571,-0.237998 z M 0.54155541,26.185574 0.40143015,26.420942 Z m 28.35927859,16.550132 0.139709,0.235642 z m -0.559602,-5.48e-4 -0.140148,0.235423 z M 56.906984,23.174985 56.771658,22.937041 Z m 0.550617,2.631183 0.139709,0.235643 z M 58,25.334884 v -1.683903 h -0.547878 v 1.683903 z M 29.040543,42.971348 57.59731,26.041811 57.317892,25.570526 28.76118,42.500064 Z M 28.481324,42.499789 0.68168614,25.950151 0.40143015,26.420942 28.201084,42.970581 Z M 0.54787792,25.714782 V 24.031756 H 0 v 1.683026 z M 0.95781661,23.793922 28.213357,39.381542 28.485323,38.905984 1.2298106,23.318365 Z M 56.771658,22.937041 28.756961,38.906149 29.028325,39.382145 57.042857,23.412983 Z M 28.213357,39.381542 c 0.252407,0.144366 0.562342,0.144585 0.814968,6.03e-4 l -0.271364,-0.475996 c -0.08421,0.04799 -0.187483,0.04794 -0.271638,-1.65e-4 z M 0.54787792,24.031756 c 0,-0.210385 0.22731455,-0.342259 0.40993869,-0.237834 L 1.2298106,23.318365 C 0.68193817,23.005033 0,23.400601 0,24.031756 Z m 0.13380822,1.918395 C 0.59871551,25.900787 0.54787792,25.811319 0.54787792,25.714782 H 0 c 0,0.289664 0.15251332,0.557959 0.40143015,0.70616 z M 28.76118,42.500064 c -0.08629,0.05112 -0.193675,0.05106 -0.279856,-2.75e-4 l -0.28024,0.470792 c 0.258599,0.153899 0.580587,0.154228 0.839459,7.67e-4 z M 58,23.650981 c 0,-0.630607 -0.680464,-1.026285 -1.228342,-0.71394 l 0.271199,0.475942 c 0.182444,-0.104097 0.409265,0.02778 0.409265,0.237998 z m -0.547878,1.683903 c 0,0.09676 -0.05095,0.186333 -0.13423,0.235642 l 0.279418,0.471285 C 57.847142,25.893829 58,25.625095 58,25.334884 Z"
       id="path156"
       fill="#3f2bb4"
       fill-rule="nonzero" />
    <path
       d="m 19.75078,24.152563 -0.0037,-0.0021 -0.0037,-0.002 L 0.71545734,13.98762 C 0.52689419,13.886975 0.52117435,13.618734 0.70526681,13.51009 L 18.784049,2.8411096 c 3.84e-4,-2.411e-4 8.22e-4,-4.877e-4 0.0013,-7.287e-4 2.94583,-1.6962848 6.788262,-2.57498295 10.620395,-2.61255258 3.833282,-0.0375811 7.626241,0.7667135 10.474275,2.40478628 1.945843,1.121676 3.186293,2.4766054 3.766934,3.8873746 0.578231,1.4049234 0.51254,2.8886864 -0.195592,4.3045678 -0.26457,0.528976 0.04997,1.249106 0.701667,1.288937 l 12.989583,0.793601 c 0.273391,0.01666 0.356121,0.37968 0.116698,0.512814 L 28.83476,29.233145 c -0.08415,0.04679 -0.186662,0.04602 -0.270049,-0.0021 l -7.031191,-4.054351 -3.84e-4,-2.2e-4 z"
       id="path158"
       fill="url(#linearGradient-2)"
       fill-rule="nonzero"
       style="fill:url(#linearGradient-2)" />
    <path
       d="M 29.403482,0.0012767 C 25.533557,0.03921685 21.783584,0.92085557 18.903825,2.513365 L 18.663479,2.6492935 0.59011933,13.31497 c -0.33635504,0.198504 -0.32589888,0.688618 0.0186559,0.872524 l 19.03023177,10.162142 1.782106,1.023787 7.030424,4.053911 c 0.15231,0.08786 0.339592,0.08929 0.493317,0.0038 L 57.369414,13.61787 c 0.437363,-0.243202 0.286326,-0.90652 -0.213066,-0.936944 L 44.166804,11.887353 C 43.709707,11.859416 43.446911,11.339858 43.653952,10.925904 44.390375,9.4534556 44.460438,7.9013272 43.856425,6.4337597 43.2349,4.9236556 41.920004,3.5470717 39.992937,2.4362197 37.176984,0.8165981 33.378875,-0.03769767 29.403482,0.0012767 Z M 0.82041759,13.705207 18.894494,3.0388986 c 2.840761,-1.6357329 6.612774,-2.54627724 10.513431,-2.58451867 3.899253,-0.0382279 7.61844,0.79831627 10.358906,2.37452027 1.845175,1.0636465 3.09011,2.3669867 3.670571,3.7773191 0.553606,1.3450943 0.489716,2.7605025 -0.188714,4.1169937 -0.346813,0.693411 0.09548,1.567833 0.890479,1.616422 l 12.989588,0.793601 c 0.0475,0.0029 0.06179,0.06565 0.02041,0.08867 l -28.42455,15.813252 c -0.01456,0.0081 -0.0323,0.008 -0.04669,-3.45e-4 L 21.645543,24.979781 19.851668,23.949444 0.82217806,13.787767 c -0.0326073,-0.0174 -0.0335965,-0.06377 -0.00176,-0.08256 z"
       id="path160"
       fill="#3f2bb4"
       fill-rule="nonzero" />
    <path
       d="m 56.906984,13.313182 c 0.365434,-0.208193 0.819077,0.05556 0.819077,0.475997 v 1.683902 c 0,0.193511 -0.101905,0.372612 -0.26846,0.471285 L 28.900834,32.873903 c -0.172527,0.102289 -0.38724,0.102125 -0.559602,-5.48e-4 L 0.54155541,16.323771 C 0.37561414,16.224934 0.27393896,16.046107 0.27393896,15.85298 v -1.683026 c 0,-0.42077 0.45462362,-0.684519 0.81987194,-0.475613 L 28.34934,29.281961 c 0.168253,0.09621 0.374913,0.09637 0.543331,3.83e-4 z"
       id="path162"
       fill="#ffffff" />
    <path
       d="m 28.34934,29.281961 -0.135983,0.237779 z m 0.543331,3.83e-4 -0.13571,-0.237998 z M 0.54155541,16.323771 0.40143015,16.55914 Z m 28.35927859,16.550132 0.139709,0.235643 z m -0.559602,-5.48e-4 -0.140148,0.235423 z M 56.906984,13.313182 56.771658,13.075239 Z m 0.550617,2.631184 0.139709,0.235642 z M 58,15.473081 v -1.683902 h -0.547878 v 1.683902 z M 29.040543,33.109546 57.59731,16.180008 57.317892,15.708724 28.76118,32.638261 Z M 28.481324,32.637987 0.68168614,16.088348 0.40143015,16.55914 28.201084,33.108778 Z M 0.54787792,15.85298 V 14.169954 H 0 V 15.85298 Z M 0.95781661,13.93212 28.213357,29.51974 28.485323,29.044182 1.2298106,13.456562 Z M 56.771658,13.075239 28.756961,29.044346 29.028325,29.520343 57.042857,13.55118 Z M 28.213357,29.51974 c 0.252407,0.144366 0.562342,0.144585 0.814968,6.03e-4 l -0.271364,-0.475997 c -0.08421,0.04799 -0.187483,0.04794 -0.271638,-1.64e-4 z M 0.54787792,14.169954 c 0,-0.210385 0.22731455,-0.342259 0.40993869,-0.237834 L 1.2298106,13.456562 C 0.68193817,13.143231 0,13.538799 0,14.169954 Z m 0.13380822,1.918394 C 0.59871551,16.038985 0.54787792,15.949516 0.54787792,15.85298 H 0 c 0,0.289663 0.15251332,0.557959 0.40143015,0.70616 z M 28.76118,32.638261 c -0.08629,0.05112 -0.193675,0.05106 -0.279856,-2.74e-4 l -0.28024,0.470791 c 0.258599,0.153899 0.580587,0.154228 0.839459,7.68e-4 z M 58,13.789179 c 0,-0.630608 -0.680464,-1.026285 -1.228342,-0.71394 l 0.271199,0.475941 c 0.182444,-0.104096 0.409265,0.02778 0.409265,0.237999 z m -0.547878,1.683902 c 0,0.09676 -0.05095,0.186334 -0.13423,0.235643 l 0.279418,0.471284 C 57.847142,16.032026 58,15.763292 58,15.473081 Z"
       id="path164"
       fill="#3f2bb4"
       fill-rule="nonzero" />
  </g>
  <metadata
     id="metadata271">
    <rdf:RDF>
      <cc:Work
         rdf:about="">
        <dc:title>Logos / Lockup v2</dc:title>
      </cc:Work>
    </rdf:RDF>
  </metadata>
</svg>
